<mxfile host="app.diagrams.net" modified="2023-07-05T15:08:05.329Z" agent="Mozilla/5.0 (Windows NT 10.0; Win64; x64) AppleWebKit/537.36 (KHTML, like Gecko) Chrome/114.0.0.0 Safari/537.36 Edg/114.0.1823.67" etag="VnGIld9O0vPLxPRif7Gu" version="21.5.2" type="device">
  <diagram name="Page-1" id="uF2CT-4Qci_a1iAr50j4">
    <mxGraphModel dx="1461" dy="811" grid="1" gridSize="10" guides="1" tooltips="1" connect="1" arrows="1" fold="1" page="1" pageScale="1" pageWidth="827" pageHeight="1169" math="0" shadow="0">
      <root>
        <mxCell id="0" />
        <mxCell id="1" parent="0" />
        <mxCell id="5s7Z9QF2SZ7rQmxPvga2-2" value="&lt;p class=&quot;MsoNormal&quot;&gt;BEGIN&lt;/p&gt;" style="ellipse;whiteSpace=wrap;html=1;" parent="1" vertex="1">
          <mxGeometry x="110" y="120" width="120" height="80" as="geometry" />
        </mxCell>
        <mxCell id="5s7Z9QF2SZ7rQmxPvga2-5" value="" style="endArrow=classic;html=1;rounded=0;" parent="1" source="5s7Z9QF2SZ7rQmxPvga2-2" edge="1">
          <mxGeometry width="50" height="50" relative="1" as="geometry">
            <mxPoint x="170" y="250" as="sourcePoint" />
            <mxPoint x="170" y="230" as="targetPoint" />
          </mxGeometry>
        </mxCell>
        <mxCell id="5s7Z9QF2SZ7rQmxPvga2-81" style="edgeStyle=orthogonalEdgeStyle;rounded=0;orthogonalLoop=1;jettySize=auto;html=1;entryX=0.5;entryY=0;entryDx=0;entryDy=0;" parent="1" source="5s7Z9QF2SZ7rQmxPvga2-6" target="5s7Z9QF2SZ7rQmxPvga2-60" edge="1">
          <mxGeometry relative="1" as="geometry" />
        </mxCell>
        <mxCell id="5s7Z9QF2SZ7rQmxPvga2-6" value="INPUT&lt;span style=&quot;font-size:11.0pt;line-height:107%;font-family:&amp;quot;Calibri&amp;quot;,sans-serif;&lt;br/&gt;mso-ascii-theme-font:minor-latin;mso-fareast-font-family:&amp;quot;Yu Mincho&amp;quot;;&lt;br/&gt;mso-fareast-theme-font:minor-fareast;mso-hansi-theme-font:minor-latin;&lt;br/&gt;mso-bidi-font-family:&amp;quot;Times New Roman&amp;quot;;mso-bidi-theme-font:minor-bidi;&lt;br/&gt;mso-ansi-language:VI;mso-fareast-language:JA;mso-bidi-language:AR-SA&quot;&gt;&amp;nbsp;diem&lt;/span&gt;" style="shape=parallelogram;perimeter=parallelogramPerimeter;whiteSpace=wrap;html=1;fixedSize=1;" parent="1" vertex="1">
          <mxGeometry x="65" y="230" width="220" height="60" as="geometry" />
        </mxCell>
        <mxCell id="5s7Z9QF2SZ7rQmxPvga2-85" style="edgeStyle=orthogonalEdgeStyle;rounded=0;orthogonalLoop=1;jettySize=auto;html=1;exitX=1;exitY=0.5;exitDx=0;exitDy=0;entryX=0.5;entryY=0;entryDx=0;entryDy=0;" parent="1" source="5s7Z9QF2SZ7rQmxPvga2-42" target="5s7Z9QF2SZ7rQmxPvga2-83" edge="1">
          <mxGeometry relative="1" as="geometry" />
        </mxCell>
        <mxCell id="l2FdfS4RlvpjMTKT3ur4-7" style="edgeStyle=none;curved=1;rounded=0;orthogonalLoop=1;jettySize=auto;html=1;exitX=0.5;exitY=0;exitDx=0;exitDy=0;fontSize=12;startSize=8;endSize=8;" edge="1" parent="1" source="5s7Z9QF2SZ7rQmxPvga2-42" target="l2FdfS4RlvpjMTKT3ur4-4">
          <mxGeometry relative="1" as="geometry" />
        </mxCell>
        <mxCell id="5s7Z9QF2SZ7rQmxPvga2-42" value="&lt;p class=&quot;MsoNormal&quot;&gt;ELSE IF 60 &amp;lt;= diem&lt;br/&gt;&amp;lt; 75&lt;/p&gt;" style="rhombus;whiteSpace=wrap;html=1;direction=south;" parent="1" vertex="1">
          <mxGeometry x="70" y="470" width="210" height="75" as="geometry" />
        </mxCell>
        <mxCell id="5s7Z9QF2SZ7rQmxPvga2-66" style="edgeStyle=orthogonalEdgeStyle;rounded=0;orthogonalLoop=1;jettySize=auto;html=1;" parent="1" source="5s7Z9QF2SZ7rQmxPvga2-60" target="5s7Z9QF2SZ7rQmxPvga2-42" edge="1">
          <mxGeometry relative="1" as="geometry" />
        </mxCell>
        <mxCell id="l2FdfS4RlvpjMTKT3ur4-1" style="edgeStyle=none;curved=1;rounded=0;orthogonalLoop=1;jettySize=auto;html=1;fontSize=12;startSize=8;endSize=8;" edge="1" parent="1" source="5s7Z9QF2SZ7rQmxPvga2-60">
          <mxGeometry relative="1" as="geometry">
            <mxPoint x="390" y="377.5" as="targetPoint" />
          </mxGeometry>
        </mxCell>
        <mxCell id="5s7Z9QF2SZ7rQmxPvga2-60" value="IF diem &amp;gt;= 75" style="rhombus;whiteSpace=wrap;html=1;" parent="1" vertex="1">
          <mxGeometry x="110" y="340" width="130" height="75" as="geometry" />
        </mxCell>
        <mxCell id="5s7Z9QF2SZ7rQmxPvga2-86" style="edgeStyle=orthogonalEdgeStyle;rounded=0;orthogonalLoop=1;jettySize=auto;html=1;entryX=0.5;entryY=0;entryDx=0;entryDy=0;" parent="1" source="5s7Z9QF2SZ7rQmxPvga2-83" target="5s7Z9QF2SZ7rQmxPvga2-84" edge="1">
          <mxGeometry relative="1" as="geometry" />
        </mxCell>
        <mxCell id="l2FdfS4RlvpjMTKT3ur4-8" style="edgeStyle=none;curved=1;rounded=0;orthogonalLoop=1;jettySize=auto;html=1;exitX=1;exitY=0.5;exitDx=0;exitDy=0;entryX=0;entryY=0.5;entryDx=0;entryDy=0;fontSize=12;startSize=8;endSize=8;" edge="1" parent="1" source="5s7Z9QF2SZ7rQmxPvga2-83" target="l2FdfS4RlvpjMTKT3ur4-5">
          <mxGeometry relative="1" as="geometry" />
        </mxCell>
        <mxCell id="5s7Z9QF2SZ7rQmxPvga2-83" value="&lt;p style=&quot;text-indent:36.0pt&quot; class=&quot;MsoNormal&quot;&gt;ELSE IF 45 &amp;lt;= diem &amp;lt; 60&lt;/p&gt;" style="rhombus;whiteSpace=wrap;html=1;" parent="1" vertex="1">
          <mxGeometry x="50" y="580" width="250" height="80" as="geometry" />
        </mxCell>
        <mxCell id="l2FdfS4RlvpjMTKT3ur4-9" style="edgeStyle=none;curved=1;rounded=0;orthogonalLoop=1;jettySize=auto;html=1;exitX=1;exitY=0.5;exitDx=0;exitDy=0;entryX=0;entryY=0.5;entryDx=0;entryDy=0;fontSize=12;startSize=8;endSize=8;" edge="1" parent="1" source="5s7Z9QF2SZ7rQmxPvga2-84" target="l2FdfS4RlvpjMTKT3ur4-6">
          <mxGeometry relative="1" as="geometry" />
        </mxCell>
        <mxCell id="5s7Z9QF2SZ7rQmxPvga2-84" value="&lt;p style=&quot;text-indent:36.0pt&quot; class=&quot;MsoNormal&quot;&gt;ELSE IF 35 &amp;lt;= diem &amp;lt; 45&lt;/p&gt;" style="rhombus;whiteSpace=wrap;html=1;" parent="1" vertex="1">
          <mxGeometry x="30" y="700" width="290" height="110" as="geometry" />
        </mxCell>
        <mxCell id="l2FdfS4RlvpjMTKT3ur4-2" value="Đúng" style="text;html=1;align=center;verticalAlign=middle;resizable=0;points=[];autosize=1;strokeColor=none;fillColor=none;fontSize=16;" vertex="1" parent="1">
          <mxGeometry x="280" y="348" width="60" height="30" as="geometry" />
        </mxCell>
        <mxCell id="l2FdfS4RlvpjMTKT3ur4-3" value="DISPLAY loai A" style="shape=parallelogram;perimeter=parallelogramPerimeter;whiteSpace=wrap;html=1;fixedSize=1;fontSize=16;" vertex="1" parent="1">
          <mxGeometry x="380" y="348" width="210" height="60" as="geometry" />
        </mxCell>
        <mxCell id="l2FdfS4RlvpjMTKT3ur4-4" value="DISPLAY loai B" style="shape=parallelogram;perimeter=parallelogramPerimeter;whiteSpace=wrap;html=1;fixedSize=1;fontSize=16;" vertex="1" parent="1">
          <mxGeometry x="380" y="477.5" width="210" height="60" as="geometry" />
        </mxCell>
        <mxCell id="l2FdfS4RlvpjMTKT3ur4-5" value="DISPLAY loai C" style="shape=parallelogram;perimeter=parallelogramPerimeter;whiteSpace=wrap;html=1;fixedSize=1;fontSize=16;" vertex="1" parent="1">
          <mxGeometry x="380" y="590" width="210" height="60" as="geometry" />
        </mxCell>
        <mxCell id="l2FdfS4RlvpjMTKT3ur4-11" style="edgeStyle=none;curved=1;rounded=0;orthogonalLoop=1;jettySize=auto;html=1;exitX=1;exitY=0.5;exitDx=0;exitDy=0;entryX=0;entryY=0.5;entryDx=0;entryDy=0;fontSize=12;startSize=8;endSize=8;" edge="1" parent="1" source="l2FdfS4RlvpjMTKT3ur4-6" target="l2FdfS4RlvpjMTKT3ur4-10">
          <mxGeometry relative="1" as="geometry" />
        </mxCell>
        <mxCell id="l2FdfS4RlvpjMTKT3ur4-6" value="DISPLAY loai D" style="shape=parallelogram;perimeter=parallelogramPerimeter;whiteSpace=wrap;html=1;fixedSize=1;fontSize=16;" vertex="1" parent="1">
          <mxGeometry x="380" y="725" width="210" height="60" as="geometry" />
        </mxCell>
        <mxCell id="l2FdfS4RlvpjMTKT3ur4-10" value="END" style="ellipse;whiteSpace=wrap;html=1;fontSize=16;" vertex="1" parent="1">
          <mxGeometry x="680" y="715" width="120" height="80" as="geometry" />
        </mxCell>
      </root>
    </mxGraphModel>
  </diagram>
</mxfile>
